<?xml version="1.0" encoding="utf-8"?>
<!-- Generator: Adobe Illustrator 15.1.0, SVG Export Plug-In  -->
<!DOCTYPE svg PUBLIC "-//W3C//DTD SVG 1.1//EN" "http://www.w3.org/Graphics/SVG/1.1/DTD/svg11.dtd" [
	<!ENTITY ns_flows "http://ns.adobe.com/Flows/1.0/">
]>
<svg version="1.1"
	 xmlns="http://www.w3.org/2000/svg" xmlns:xlink="http://www.w3.org/1999/xlink" xmlns:a="http://ns.adobe.com/AdobeSVGViewerExtensions/3.0/"
	 x="0px" y="0px" width="164px" height="38px" viewBox="0 0 164 38" overflow="visible" enable-background="new 0 0 164 38"
	 xml:space="preserve">
<defs>
</defs>
<g>
	<g>
		<path fill="#FAAB45" d="M15,0C6.714,0,0,6.691,0,14.945c0,5.442,2.928,10.19,7.291,12.803C2.99,23.987,4.36,16.569,6.839,13.892
			c0.057,0-0.317,1.845,1.798,3.507c-0.113,0-1.836-6.756,3.28-8.686c0.057,0-1.223,3.431,0.223,4.664
			c-0.056,0,0.101-7.077,5.612-11.743c0,0-1.717,2.414,0.063,8.526c-0.056,0.053,1.28-2.2,3.226-1.983
			c-0.056-0.054-2.058,0.75-0.331,6.916c0,0,1.525-2.331,3.583-1.902c0,0-2.175,2.493-0.651,5.617
			c0.873,1.787,2.084,6.819-1.922,9.484C26.626,25.836,30,20.79,30,14.945C30,6.691,23.285,0,15,0z"/>
	</g>
</g>
<g>
	<g>
		<g>
			<path fill="#DA4926" d="M20.115,21.379c-0.032-0.001-0.333,1.908-1.795,1.919c0.065,0.001,1.167-3.95-0.964-5.597
				c0,0,0.313,2.63-1.009,3.164c0.034,0,0.601-3.994-2.694-6.555c0,0,0.729,1.598-0.566,4.549c0.032,0.033-1.039-1.212-2.188-1.127
				c0.036-0.03,1.254,0.888,0.39,3.961c0,0-0.848-1.401-2.063-1.191c0,0,1.221,1.507,0.262,3.308
				c-0.625,1.172-1.58,4.415,2.081,5.684C12.67,29.75,13.818,29.89,15,29.89c0.831,0,1.645-0.069,2.438-0.199
				C21.885,28.371,21.736,23.262,20.115,21.379z"/>
		</g>
	</g>
</g>
<g>
	<g>
		<path fill="#302824" d="M51.883,15.678c0.929,0.812,1.394,2.029,1.394,3.65c0,2.369-0.849,4.04-2.547,5.012
			c-1.697,0.972-4.072,1.459-7.125,1.459h-7.142V3.604h6.278c3.116,0,5.497,0.445,7.141,1.329c1.644,0.887,2.466,2.334,2.466,4.339
			c0,1.303-0.389,2.354-1.169,3.156c-0.78,0.799-1.745,1.34-2.898,1.616C49.754,14.322,50.955,14.867,51.883,15.678z M41.716,12.476
			h1.953c2.22,0,3.331-0.897,3.331-2.69c0-0.897-0.299-1.533-0.896-1.906c-0.598-0.374-1.549-0.56-2.85-0.56h-1.537V12.476z
			 M46.792,21.361c0.715-0.416,1.072-1.188,1.072-2.321c0-2.05-1.28-3.074-3.843-3.074h-2.305v6.021h1.921
			C45.024,21.986,46.075,21.779,46.792,21.361z"/>
		<path fill="#302824" d="M59.489,21.025l-1.122,4.773h-5.443l6.692-22.195h6.373l6.693,22.195H67.11l-1.121-4.773H59.489z
			 M62.723,7.417l-2.338,9.799h4.676L62.723,7.417z"/>
		<path fill="#302824" d="M88.35,21.634l-0.544,4.165H74.451V3.604h5.253v18.03H88.35z"/>
		<path fill="#302824" d="M94.979,7.352v5.317h6.82v3.681h-6.82v5.668h8.359v3.781H89.727V3.604h13.612l-0.546,3.748H94.979z"/>
		<path fill="#302824" d="M111.648,7.352v5.893h6.468v3.746h-6.468v8.809h-5.253V3.604h13.227l-0.544,3.748H111.648z"/>
		<path fill="#302824" d="M122.184,25.799V3.604h5.253v22.195H122.184z"/>
		<path fill="#302824" d="M136.436,17.311v8.488h-5.253V3.604h7.271c3.032,0,5.311,0.556,6.837,1.665
			c1.526,1.112,2.29,2.81,2.29,5.093c0,1.431-0.342,2.614-1.024,3.554c-0.684,0.94-1.761,1.751-3.234,2.433l5.636,9.449h-5.924
			l-4.548-8.488H136.436z M138.646,13.693c1.174,0,2.055-0.266,2.643-0.801c0.586-0.534,0.88-1.377,0.88-2.53
			c0-1.067-0.314-1.847-0.945-2.338c-0.63-0.491-1.596-0.738-2.897-0.738h-1.89v6.406H138.646z"/>
		<path fill="#302824" d="M155.329,7.352v5.317h6.82v3.681h-6.82v5.668h8.358v3.781h-13.611V3.604h13.611l-0.546,3.748H155.329z"/>
	</g>
</g>
<g>
	<g>
		<path fill="#716558" d="M41.013,32.127h0.496v0.741h0.025c0.281-0.529,0.741-0.871,1.44-0.871c0.58,0,1.099,0.283,1.262,0.863
			c0.263-0.58,0.818-0.863,1.396-0.863c0.964,0,1.458,0.503,1.458,1.544v2.983h-0.536v-2.957c0-0.726-0.272-1.117-1.041-1.117
			c-0.928,0-1.193,0.768-1.193,1.586v2.488h-0.538v-2.983c0.009-0.596-0.238-1.091-0.92-1.091c-0.928,0-1.304,0.698-1.312,1.62
			v2.454h-0.538V32.127z"/>
		<path fill="#716558" d="M49.875,33.472c0.05-1.029,0.774-1.475,1.78-1.475c0.776,0,1.619,0.241,1.619,1.417v2.335
			c0,0.204,0.102,0.323,0.315,0.323c0.06,0,0.128-0.017,0.171-0.035v0.453c-0.119,0.023-0.204,0.034-0.35,0.034
			c-0.545,0-0.63-0.307-0.63-0.768h-0.017c-0.375,0.572-0.759,0.895-1.602,0.895c-0.81,0-1.475-0.399-1.475-1.286
			c0-1.236,1.202-1.279,2.36-1.414c0.443-0.053,0.691-0.111,0.691-0.599c0-0.723-0.521-0.902-1.15-0.902
			c-0.666,0-1.16,0.307-1.177,1.021H49.875z M52.738,34.12h-0.017c-0.069,0.128-0.307,0.17-0.452,0.196
			c-0.912,0.162-2.045,0.153-2.045,1.014c0,0.538,0.477,0.869,0.98,0.869c0.818,0,1.542-0.52,1.534-1.38V34.12z"/>
		<path fill="#716558" d="M56.184,32.127h0.495v1.03h0.016c0.272-0.707,0.87-1.126,1.663-1.091v0.537
			c-0.972-0.051-1.636,0.664-1.636,1.575v2.346h-0.538V32.127z"/>
		<path fill="#716558" d="M60.718,30.438h0.538v3.818l2.438-2.129h0.716l-1.876,1.628l2.003,2.77h-0.673l-1.739-2.396l-0.869,0.725
			v1.671h-0.538V30.438z"/>
		<path fill="#716558" d="M66.937,34.47c0.009,0.784,0.418,1.729,1.45,1.729c0.784,0,1.21-0.458,1.381-1.125h0.536
			c-0.23,0.998-0.809,1.577-1.917,1.577c-1.398,0-1.986-1.074-1.986-2.327c0-1.159,0.588-2.327,1.986-2.327
			c1.414,0,1.977,1.236,1.934,2.473H66.937z M69.784,34.018c-0.026-0.808-0.529-1.567-1.398-1.567c-0.878,0-1.364,0.768-1.45,1.567
			H69.784z"/>
		<path fill="#716558" d="M73.65,32.127h0.895v0.45H73.65v2.965c0,0.35,0.052,0.557,0.434,0.58c0.154,0,0.307-0.008,0.461-0.023
			v0.46c-0.162,0-0.315,0.017-0.478,0.017c-0.715,0-0.962-0.238-0.955-0.987v-3.011h-0.767v-0.45h0.767v-1.321h0.538V32.127z"/>
		<path fill="#716558" d="M77.052,30.438h0.536v0.863h-0.536V30.438z M77.052,32.127h0.536v4.397h-0.536V32.127z"/>
		<path fill="#716558" d="M80.405,32.127h0.536v0.757h0.018c0.196-0.526,0.784-0.887,1.406-0.887c1.237,0,1.611,0.648,1.611,1.697
			v2.83h-0.536v-2.745c0-0.758-0.247-1.329-1.117-1.329c-0.853,0-1.363,0.648-1.381,1.509v2.565h-0.536V32.127z"/>
		<path fill="#716558" d="M90.502,36.165c-0.008,1.312-0.511,2.115-1.951,2.115c-0.877,0-1.747-0.392-1.824-1.329h0.538
			c0.119,0.646,0.689,0.876,1.286,0.876c0.989,0,1.414-0.588,1.414-1.662v-0.597h-0.016c-0.248,0.538-0.768,0.903-1.398,0.903
			c-1.405,0-1.985-1.003-1.985-2.259c0-1.21,0.716-2.216,1.985-2.216c0.64,0,1.186,0.402,1.398,0.887h0.016v-0.757h0.537V36.165z
			 M89.965,34.274c0-0.86-0.399-1.824-1.414-1.824c-1.023,0-1.449,0.91-1.449,1.824c0,0.887,0.461,1.747,1.449,1.747
			C89.479,36.021,89.965,35.169,89.965,34.274z"/>
		<path fill="#DB4A27" d="M95.946,32.212h1.227v1.543h1.533v1.227h-1.533v1.543h-1.227v-1.543h-1.534v-1.227h1.534V32.212z"/>
		<path fill="#716558" d="M102.562,33.472c0.05-1.029,0.774-1.475,1.78-1.475c0.776,0,1.619,0.241,1.619,1.417v2.335
			c0,0.204,0.102,0.323,0.315,0.323c0.06,0,0.128-0.017,0.171-0.035v0.453c-0.119,0.023-0.204,0.034-0.35,0.034
			c-0.546,0-0.631-0.307-0.631-0.768h-0.017c-0.375,0.572-0.759,0.895-1.603,0.895c-0.81,0-1.475-0.399-1.475-1.286
			c0-1.236,1.202-1.279,2.36-1.414c0.444-0.053,0.691-0.111,0.691-0.599c0-0.723-0.521-0.902-1.15-0.902
			c-0.666,0-1.159,0.307-1.177,1.021H102.562z M105.425,34.12h-0.018c-0.068,0.128-0.307,0.17-0.451,0.196
			c-0.912,0.162-2.045,0.153-2.045,1.014c0,0.538,0.477,0.869,0.979,0.869c0.818,0,1.542-0.52,1.534-1.38V34.12z"/>
		<path fill="#716558" d="M112.67,36.524h-0.495v-0.837h-0.016c-0.23,0.572-0.93,0.964-1.568,0.964
			c-1.339,0-1.977-1.083-1.977-2.327s0.638-2.327,1.977-2.327c0.656,0,1.296,0.334,1.524,0.964h0.018v-2.523h0.537V36.524z
			 M110.591,36.199c1.143,0,1.542-0.961,1.542-1.875c0-0.91-0.399-1.874-1.542-1.874c-1.022,0-1.44,0.964-1.44,1.874
			C109.15,35.238,109.568,36.199,110.591,36.199z"/>
		<path fill="#716558" d="M115.045,32.127h0.596l1.381,3.86h0.018l1.363-3.86h0.555l-1.646,4.397h-0.57L115.045,32.127z"/>
		<path fill="#716558" d="M121.5,34.47c0.01,0.784,0.419,1.729,1.45,1.729c0.783,0,1.21-0.458,1.381-1.125h0.536
			c-0.23,0.998-0.81,1.577-1.917,1.577c-1.398,0-1.986-1.074-1.986-2.327c0-1.159,0.588-2.327,1.986-2.327
			c1.414,0,1.977,1.236,1.934,2.473H121.5z M124.348,34.018c-0.026-0.808-0.529-1.567-1.397-1.567c-0.878,0-1.364,0.768-1.45,1.567
			H124.348z"/>
		<path fill="#716558" d="M127.46,32.127h0.495v1.03h0.017c0.272-0.707,0.869-1.126,1.662-1.091v0.537
			c-0.972-0.051-1.636,0.664-1.636,1.575v2.346h-0.538V32.127z"/>
		<path fill="#716558" d="M133.05,32.127h0.895v0.45h-0.895v2.965c0,0.35,0.052,0.557,0.434,0.58c0.154,0,0.308-0.008,0.461-0.023
			v0.46c-0.161,0-0.314,0.017-0.478,0.017c-0.715,0-0.963-0.238-0.955-0.987v-3.011h-0.766v-0.45h0.766v-1.321h0.538V32.127z"/>
		<path fill="#716558" d="M136.452,30.438h0.536v0.863h-0.536V30.438z M136.452,32.127h0.536v4.397h-0.536V32.127z"/>
		<path fill="#716558" d="M142.441,33.414c-0.025-0.665-0.536-0.964-1.15-0.964c-0.477,0-1.04,0.188-1.04,0.76
			c0,0.477,0.546,0.646,0.912,0.741l0.717,0.161c0.612,0.093,1.252,0.45,1.252,1.218c0,0.956-0.946,1.321-1.765,1.321
			c-1.021,0-1.721-0.477-1.806-1.551h0.536c0.043,0.726,0.58,1.099,1.296,1.099c0.502,0,1.201-0.22,1.201-0.834
			c0-0.512-0.477-0.684-0.963-0.803l-0.69-0.153c-0.698-0.186-1.228-0.427-1.228-1.176c0-0.895,0.879-1.236,1.653-1.236
			c0.878,0,1.577,0.461,1.611,1.417H142.441z"/>
		<path fill="#716558" d="M145.732,30.438h0.536v0.863h-0.536V30.438z M145.732,32.127h0.536v4.397h-0.536V32.127z"/>
		<path fill="#716558" d="M149.087,32.127h0.536v0.757h0.018c0.195-0.526,0.783-0.887,1.405-0.887c1.236,0,1.611,0.648,1.611,1.697
			v2.83h-0.536v-2.745c0-0.758-0.248-1.329-1.117-1.329c-0.853,0-1.363,0.648-1.381,1.509v2.565h-0.536V32.127z"/>
		<path fill="#716558" d="M159.183,36.165c-0.008,1.312-0.511,2.115-1.951,2.115c-0.878,0-1.748-0.392-1.824-1.329h0.537
			c0.119,0.646,0.689,0.876,1.287,0.876c0.988,0,1.413-0.588,1.413-1.662v-0.597h-0.016c-0.247,0.538-0.768,0.903-1.397,0.903
			c-1.406,0-1.986-1.003-1.986-2.259c0-1.21,0.717-2.216,1.986-2.216c0.639,0,1.185,0.402,1.397,0.887h0.016v-0.757h0.538V36.165z
			 M158.645,34.274c0-0.86-0.399-1.824-1.413-1.824c-1.023,0-1.45,0.91-1.45,1.824c0,0.887,0.461,1.747,1.45,1.747
			C158.16,36.021,158.645,35.169,158.645,34.274z"/>
	</g>
</g>
</svg>
