<?xml version="1.0" encoding="UTF-8"?>
<svg id="Layer_1" xmlns="http://www.w3.org/2000/svg" version="1.1" viewBox="0 0 1200 630">
  <!-- Generator: Adobe Illustrator 29.8.2, SVG Export Plug-In . SVG Version: 2.1.1 Build 3)  -->
  <rect width="1200" height="630" fill="#ddd"/>
  <g>
    <path d="M318.1,283.9v-81.9h24.2l19.5,32.1c1.7,2.8,3.3,5.6,4.7,8.4,1.5,2.8,2.9,5.9,4.3,9.2,1.4,3.4,2.8,7.3,4.2,11.7h-1.9c-.2-3-.4-6.4-.7-10.3-.3-3.9-.5-7.7-.7-11.5-.2-3.8-.3-7-.3-9.6v-30h22.9v81.9h-24.2l-18.2-29.9c-2.1-3.4-3.9-6.6-5.4-9.5-1.6-2.9-3.1-6.1-4.5-9.4-1.4-3.3-3.1-7.1-5-11.4h2.3c.3,3.8.6,7.7.9,11.5.3,3.8.5,7.3.7,10.6.2,3.3.2,6,.2,8.2v29.9h-22.9Z" fill="#999"/>
    <path d="M443,285c-7.4,0-14.2-1.6-20.2-4.8-6-3.2-10.8-8-14.3-14.2-3.5-6.2-5.3-13.9-5.3-22.9s1.8-16.8,5.3-23.1c3.5-6.3,8.3-11,14.3-14.2,6-3.2,12.8-4.8,20.2-4.8s14.2,1.6,20.2,4.8c6,3.2,10.8,7.9,14.3,14.2,3.5,6.3,5.3,14,5.3,23.1s-1.8,16.7-5.3,23c-3.5,6.2-8.3,11-14.3,14.2-6,3.2-12.7,4.8-20.2,4.8ZM443,265.6c3.7,0,6.8-.9,9.3-2.6,2.5-1.7,4.4-4.3,5.7-7.7,1.3-3.4,1.9-7.5,1.9-12.4s-.6-9.1-1.9-12.4c-1.3-3.4-3.2-6-5.7-7.7-2.5-1.7-5.6-2.6-9.3-2.6s-6.8.9-9.3,2.6c-2.5,1.7-4.4,4.3-5.7,7.7-1.3,3.4-2,7.5-2,12.4s.6,9,2,12.4c1.3,3.4,3.2,5.9,5.7,7.7,2.5,1.7,5.6,2.6,9.3,2.6Z" fill="#999"/>
    <path d="M536.5,202v81.9h-22.2v-81.9h22.2Z" fill="#999"/>
    <path d="M547.1,283.9v-81.9h35.1l7.4,25.6c.6,2.2,1.3,5.1,2.1,8.7.8,3.6,1.6,7.5,2.4,11.7.8,4.2,1.5,8.2,2.2,12,.7,3.8,1.2,7.1,1.5,9.7h-4.1c.4-2.6.9-5.9,1.5-9.7.6-3.8,1.4-7.8,2.1-12,.8-4.2,1.6-8,2.4-11.7.8-3.6,1.5-6.5,2.1-8.7l7.3-25.6h35.1v81.9h-22.4v-31.6c0-1.9,0-4.3.1-7.4,0-3.1.2-6.5.3-10.2.1-3.7.2-7.4.3-11.2,0-3.7.1-7.2.1-10.3h1.3c-.7,3.5-1.4,7.1-2.3,10.9-.8,3.8-1.7,7.4-2.6,11-.9,3.6-1.7,6.9-2.5,9.8-.8,3-1.5,5.5-2.1,7.4l-9.5,31.6h-18.5l-9.7-31.6c-.6-2-1.3-4.5-2.1-7.4-.8-3-1.7-6.3-2.6-9.8-.9-3.6-1.8-7.2-2.7-11-.9-3.8-1.6-7.4-2.3-10.9h1.6c0,3.2,0,6.6.1,10.3,0,3.7.2,7.5.3,11.2.1,3.7.2,7.1.3,10.2,0,3.1.1,5.6.1,7.4v31.6h-22.4Z" fill="#999"/>
    <path d="M651.9,283.9l26.5-81.9h30.3l27.5,81.9h-25.2l-9.5-31.8c-2.1-6.9-4-14-5.8-21.5-1.8-7.4-3.5-14.8-5.1-22.1h5.1c-1.5,7.3-3.1,14.7-4.7,22.1-1.6,7.4-3.4,14.6-5.3,21.5l-9.1,31.8h-24.8ZM671.6,268.2v-16.6h45.1v16.6h-45.1Z" fill="#999"/>
    <path d="M777.3,285c-7.9,0-14.9-1.7-21-5.1-6-3.4-10.7-8.2-14.1-14.5-3.4-6.3-5.1-13.7-5.1-22.3s1.8-16.7,5.4-22.9c3.6-6.3,8.4-11.1,14.5-14.3,6-3.3,12.7-4.9,20.1-4.9s9.3.7,13.5,2.1c4.2,1.4,7.8,3.3,11.1,5.9,3.2,2.5,5.8,5.5,7.8,8.9,2,3.4,3.2,7.2,3.6,11.3h-22.4c-.3-1.4-.9-2.6-1.6-3.7-.8-1.1-1.7-2-2.8-2.8-1.1-.8-2.4-1.3-3.8-1.7-1.4-.4-3-.6-4.8-.6-3.7,0-6.9.9-9.5,2.7-2.6,1.8-4.6,4.4-6,7.7-1.4,3.4-2.1,7.4-2.1,12.1s.7,8.9,2,12.3,3.3,6,5.9,7.8c2.6,1.8,5.8,2.7,9.6,2.7s6.2-.5,8.4-1.5c2.3-1,3.9-2.4,5.1-4.2,1.1-1.8,1.7-3.9,1.7-6.4l3.8.4h-18.7v-15.8h36.3v11.3c0,7.5-1.6,13.9-4.7,19.1-3.2,5.3-7.5,9.3-13,12.1s-11.9,4.2-19,4.2Z" fill="#999"/>
    <path d="M823.5,283.9v-81.9h59v17.9h-36.8v13.8h33.7v17.5h-33.7v14.7h36.6v17.9h-58.8Z" fill="#999"/>
    <path d="M281.5,418.9l26.5-81.9h30.3l27.5,81.9h-25.2l-9.5-31.8c-2.1-6.9-4-14-5.8-21.5-1.8-7.4-3.5-14.8-5.1-22.1h5.1c-1.5,7.3-3.1,14.7-4.7,22.1-1.6,7.4-3.4,14.6-5.3,21.5l-9.1,31.8h-24.8ZM301.1,403.2v-16.6h45.1v16.6h-45.1Z" fill="#999"/>
    <path d="M388.5,418.9l-27.5-81.9h25.2l9.5,31.8c2.1,6.9,3.9,13.9,5.7,21,1.7,7.1,3.4,14.4,5,21.7h-4.9c1.5-7.3,3.1-14.6,4.7-21.7,1.6-7.1,3.4-14.1,5.4-21l9.1-31.8h24.8l-26.6,81.9h-30.3Z" fill="#999"/>
    <path d="M440.6,418.9l26.5-81.9h30.3l27.5,81.9h-25.2l-9.5-31.8c-2.1-6.9-4-14-5.8-21.5-1.8-7.4-3.5-14.8-5.1-22.1h5.1c-1.5,7.3-3.1,14.7-4.7,22.1-1.6,7.4-3.4,14.6-5.3,21.5l-9.1,31.8h-24.8ZM460.2,403.2v-16.6h45.1v16.6h-45.1Z" fill="#999"/>
    <path d="M555,337v81.9h-22.2v-81.9h22.2Z" fill="#999"/>
    <path d="M565.5,418.9v-81.9h22.2v64h33.1v17.9h-55.3Z" fill="#999"/>
    <path d="M626.4,418.9l26.5-81.9h30.3l27.5,81.9h-25.2l-9.5-31.8c-2.1-6.9-4-14-5.8-21.5-1.8-7.4-3.5-14.8-5.1-22.1h5.1c-1.5,7.3-3.1,14.7-4.7,22.1-1.6,7.4-3.4,14.6-5.3,21.5l-9.1,31.8h-24.8ZM646.1,403.2v-16.6h45.1v16.6h-45.1Z" fill="#999"/>
    <path d="M718.6,418.9v-81.9h35.5c6.2,0,11.5.8,15.7,2.5,4.2,1.7,7.5,4.1,9.6,7.1,2.2,3.1,3.2,6.7,3.2,10.8s-.7,5.8-2,8.2-3.2,4.6-5.5,6.2c-2.4,1.7-5.1,2.8-8.3,3.4v.9c3.5.1,6.7,1,9.6,2.6,2.9,1.6,5.2,3.9,6.9,6.8,1.7,2.9,2.6,6.2,2.6,10.1s-1.2,8.5-3.5,12c-2.3,3.5-5.6,6.2-9.9,8.2-4.3,2-9.4,3-15.3,3h-38.6ZM740.8,370.1h9.1c1.9,0,3.7-.3,5.1-.9s2.6-1.5,3.5-2.6c.8-1.2,1.3-2.6,1.3-4.3,0-2.5-.9-4.4-2.7-5.8-1.8-1.4-4.1-2-6.8-2h-9.5v15.6ZM740.8,401.2h10.4c3.7,0,6.5-.7,8.4-2.1,1.9-1.4,2.8-3.5,2.8-6.2s-.4-3.6-1.3-4.9-2.1-2.4-3.8-3c-1.6-.7-3.6-1-5.8-1h-10.8v17.4Z" fill="#999"/>
    <path d="M793.8,418.9v-81.9h22.2v64h33.1v17.9h-55.3Z" fill="#999"/>
    <path d="M857.4,418.9v-81.9h59v17.9h-36.8v13.8h33.7v17.5h-33.7v14.7h36.6v17.9h-58.8Z" fill="#999"/>
  </g>
</svg>